PathFileType	4	(X/Y/Z)	Walk4.trc
DataRate	CameraRate	NumFrames	NumMarkers	Units	OrigDataRate	OrigDataStartFrame	OrigNumFrames
200.000000	200.000000	7	59	mm	200.000000	429	506
Frame#	Times		LBHD		RBHD		C7		T10		RBack		LPSI		RPSI		RElbowM		RCAR		RFA1		LUA1		RTB1		RTH3		RTB4		LACR1		LCAR		RTH2		LWRU		RTB3		LWRR		RMT1		RWRU		RToe		LElbowM		RCAL		CLAV		RUA1		RTH4		RTH1		RWRR		RMT5		LFA1		LLFC		RACR1		RTB2		LTH1		LTH4		LFHD		RElbow		RLFC		RFHD		LElbow		RMMAL		STRN		LTH3		RLMAL		RASI		LTB2		LTH2		LTB3		LCAL		LASI		LMT5		LMT1		LTB1		LToe		LTB4		LLMAL		LMMAL
			X1	Y1	Z1	X2	Y2	Z2	X3	Y3	Z3	X4	Y4	Z4	X5	Y5	Z5	X6	Y6	Z6	X7	Y7	Z7	X8	Y8	Z8	X9	Y9	Z9	X10	Y10	Z10	X11	Y11	Z11	X12	Y12	Z12	X13	Y13	Z13	X14	Y14	Z14	X15	Y15	Z15	X16	Y16	Z16	X17	Y17	Z17	X18	Y18	Z18	X19	Y19	Z19	X20	Y20	Z20	X21	Y21	Z21	X22	Y22	Z22	X23	Y23	Z23	X24	Y24	Z24	X25	Y25	Z25	X26	Y26	Z26	X27	Y27	Z27	X28	Y28	Z28	X29	Y29	Z29	X30	Y30	Z30	X31	Y31	Z31	X32	Y32	Z32	X33	Y33	Z33	X34	Y34	Z34	X35	Y35	Z35	X36	Y36	Z36	X37	Y37	Z37	X38	Y38	Z38	X39	Y39	Z39	X40	Y40	Z40	X41	Y41	Z41	X42	Y42	Z42	X43	Y43	Z43	X44	Y44	Z44	X45	Y45	Z45	X46	Y46	Z46	X47	Y47	Z47	X48	Y48	Z48	X49	Y49	Z49	X50	Y50	Z50	X51	Y51	Z51	X52	Y52	Z52	X53	Y53	Z53	X54	Y54	Z54	X55	Y55	Z55	X56	Y56	Z56	X57	Y57	Z57	X58	Y58	Z58	X59	Y59	Z59

429	2.145	429.26	1482.5	-137.97	421.66	1494.1	-15	388.98	1349.4	-64.732	364.38	1076.9	-52.993	362.23	1253	72.869	357.51	884.08	-84.369	342.95	894.14	14.354	459.96	954.6	155.13	663.49	777.89	210.06	552.73	881.96	219.87	476.36	1099.6	-294.04	406.21	321.42	60.805	447.95	544.76	151.69	336.5	261.63	54.245	474.47	1277.1	-222.35	528.85	705.27	-357.61	529.57	639.49	146.48	481.06	742.02	-338.08	275.91	190.86	45.193	549.25	740.61	-307.68	231.26	64.377	8.8208	605.46	786.05	190.08	251.3	26.63	16.54	410.38	953.05	-232.76	137.79	184.34	44.667	513.42	1270.8	-50.947	496.87	1146.1	179.83	455.12	638.79	169.93	464.02	725.66	189.82	664.25	823.6	163.81	206.57	65.206	63.38	456.34	860.67	-327.7	603.44	453.52	-154.98	459.66	1294.8	94.678	310.36	279.37	119.62	551.23	742.37	-212.33	580.02	655.9	-187.89	600.5	1473.1	-105.92	511.38	1003.5	220.15	449.48	444.82	145.53	601.37	1484.4	-29.311	435.6	981.79	-302.41	204.99	158.29	1.3635	578.31	1168	-48.262	603.19	567.95	-166.01	187.43	154.3	78.674	525.99	883.65	118.28	619.74	249.85	-136.73	635.98	686.05	-150.43	655.96	163.55	-63.015	572.81	29.539	-61.66	567.03	858.49	-179.72	704.46	29.824	-109.74	726.99	49.362	-56.554	649.75	345.7	-75.012	782.66	26.001	-67.24	644.54	254.07	-70.209	613.47	61.849	-104.45	635.5	68.823	-27.081
430	2.15	434.59	1483.3	-139.09	426.88	1495	-16.147	394.21	1350.3	-65.847	369.83	1077.7	-53.785	367.44	1254	71.894	362.96	884.99	-84.879	348.46	894.52	13.868	463.71	955.99	154.51	665.55	777.66	210.62	555.61	882.76	219.9	482.05	1100.6	-294.85	415.76	321.71	63.109	456.46	545.1	152.57	345.14	262.95	55.944	479.97	1278	-223.22	534.51	706.09	-358.07	537.06	640.73	146.97	486.78	742.94	-338.62	283.66	193.04	46.52	554.96	741.61	-308.22	236.41	66.392	9.9669	607.59	786.3	190.61	254.48	27.357	18.251	416.06	954.11	-233.37	145.47	188.98	43.845	518.69	1271.8	-51.809	501.49	1147.3	179.12	462.56	639.34	170.19	470.47	726.4	189.54	666.72	823.24	164.23	210.81	67.876	63.959	462.03	861.62	-328.35	605.77	453.64	-155.46	464.84	1296	93.654	317.96	281.96	120.44	556.02	742.95	-212.82	584.05	656.2	-188.48	605.79	1473.8	-106.89	515.15	1004.6	219.66	458.82	445.25	146.84	606.6	1485.2	-30.286	441.25	982.75	-303.13	212.8	161.29	1.6895	583.65	1169	-49.063	606.42	568.05	-166.54	193.87	158.12	78.782	532.69	883.83	117.95	620.85	249.8	-137.09	640.26	685.85	-150.97	656.6	163.39	-63.279	572.81	29.618	-61.739	572.55	859.63	-180.2	704.52	29.787	-109.87	727.04	49.159	-56.512	651.46	345.54	-75.451	782.83	25.598	-66.99	645.69	253.94	-70.552	613.59	61.837	-104.59	635.61	68.841	-27.224
431	2.155	439.91	1484.1	-140.18	432.11	1495.9	-17.26	399.43	1351.1	-66.937	375.28	1078.4	-54.567	372.61	1255.1	70.929	368.37	885.86	-85.394	353.93	894.89	13.356	467.42	957.33	153.91	667.57	777.4	211.24	558.44	883.53	219.96	487.75	1101.5	-295.64	425.39	322.05	65.341	464.98	545.47	153.43	353.94	264.27	57.609	485.48	1278.9	-224.05	540.24	706.89	-358.53	544.55	641.99	147.46	492.55	743.85	-339.17	291.63	195.18	47.773	560.72	742.6	-308.78	242.08	68.43	11.243	609.67	786.51	191.17	258.25	28.178	20.198	421.73	955.12	-234	153.37	193.35	43.037	523.95	1272.7	-52.635	506.07	1148.5	178.45	470	639.9	170.44	476.92	727.14	189.25	669.15	822.85	164.71	215.56	70.626	64.654	467.74	862.53	-329.01	607.97	453.74	-155.92	469.99	1297.1	92.663	325.75	284.51	121.19	560.71	743.49	-213.32	587.97	656.47	-189.05	611.08	1474.6	-107.84	518.86	1005.6	219.19	468.17	445.71	148.04	611.83	1486	-31.235	446.89	983.68	-303.86	220.83	164.17	1.9947	588.97	1170	-49.822	609.54	568.12	-167.07	200.61	161.84	78.863	539.35	884	117.59	621.9	249.76	-137.43	644.44	685.62	-151.51	657.2	163.23	-63.525	572.81	29.683	-61.805	578.01	860.69	-180.71	704.56	29.762	-109.98	727.08	48.993	-56.474	653.06	345.39	-75.851	782.98	25.258	-66.757	646.77	253.82	-70.871	613.69	61.828	-104.72	635.7	68.861	-27.358
432	2.16	445.22	1484.8	-141.24	437.32	1496.8	-18.338	404.64	1351.9	-67.998	380.7	1079.2	-55.339	377.75	1256.1	69.973	373.72	886.71	-85.91	359.36	895.24	12.824	471.09	958.62	153.34	669.52	777.11	211.93	561.21	884.25	220.05	493.47	1102.4	-296.41	435.09	322.46	67.468	473.49	545.87	154.25	362.87	265.59	59.222	491	1279.8	-224.85	546.04	707.67	-359.01	552.02	643.28	147.94	498.38	744.71	-339.72	299.8	197.28	48.937	566.53	743.56	-309.34	248.27	70.462	12.652	611.72	786.7	191.77	262.68	29.087	22.383	427.38	956.09	-234.66	161.47	197.41	42.235	529.19	1273.6	-53.426	510.63	1149.6	177.81	477.44	640.47	170.67	483.35	727.89	188.95	671.54	822.43	165.26	220.85	73.421	65.471	473.48	863.4	-329.68	610.07	453.83	-156.37	475.09	1298.2	91.711	333.75	287	121.86	565.32	743.99	-213.83	591.79	656.7	-189.6	616.35	1475.3	-108.76	522.52	1006.6	218.76	477.53	446.19	149.15	617.05	1486.8	-32.156	452.54	984.57	-304.59	229.1	166.89	2.2763	594.26	1170.9	-50.537	612.55	568.17	-167.58	207.65	165.41	78.914	545.96	884.15	117.21	622.89	249.71	-137.74	648.53	685.35	-152.06	657.75	163.07	-63.757	572.8	29.735	-61.858	583.38	861.68	-181.24	704.59	29.742	-110.09	727.1	48.858	-56.443	654.56	345.23	-76.22	783.11	24.973	-66.544	647.78	253.7	-71.169	613.77	61.822	-104.83	635.77	68.878	-27.484
433	2.165	450.52	1485.6	-142.26	442.54	1497.6	-19.38	409.85	1352.6	-69.028	386.09	1079.9	-56.101	382.86	1257	69.026	379.03	887.51	-86.422	364.75	895.58	12.278	474.71	959.85	152.81	671.43	776.8	212.68	563.94	884.92	220.16	499.2	1103.3	-297.18	444.84	322.95	69.464	481.99	546.32	155.02	371.93	266.9	60.763	496.52	1280.6	-225.63	551.9	708.43	-359.5	559.48	644.6	148.39	504.26	745.54	-340.28	308.18	199.32	50.003	572.38	744.48	-309.92	255.02	72.459	14.194	613.72	786.85	192.4	267.82	30.073	24.797	433	957	-235.36	169.76	201.13	41.429	534.42	1274.4	-54.182	515.17	1150.6	177.2	484.87	641.07	170.87	489.77	728.64	188.65	673.9	821.99	165.86	226.71	76.223	66.412	479.24	864.21	-330.36	612.06	453.91	-156.79	480.16	1299.2	90.799	341.94	289.41	122.46	569.84	744.46	-214.33	595.51	656.92	-190.13	621.61	1475.9	-109.65	526.13	1007.6	218.36	486.87	446.72	150.15	622.27	1487.5	-33.048	458.19	985.41	-305.34	237.6	169.44	2.533	599.52	1171.7	-51.206	615.46	568.2	-168.08	214.99	168.8	78.938	552.54	884.29	116.82	623.81	249.67	-138.04	652.53	685.05	-152.61	658.27	162.92	-63.979	572.79	29.777	-61.901	588.67	862.59	-181.81	704.6	29.725	-110.18	727.11	48.752	-56.421	655.97	345.06	-76.566	783.22	24.737	-66.356	648.72	253.58	-71.452	613.83	61.818	-104.94	635.83	68.894	-27.603
434	2.17	455.81	1486.2	-143.24	447.74	1498.4	-20.385	415.06	1353.3	-70.025	391.46	1080.6	-56.854	387.93	1257.9	68.089	384.29	888.29	-86.928	370.1	895.91	11.724	478.3	961.01	152.31	673.29	776.45	213.49	566.62	885.53	220.3	504.94	1104.1	-297.93	454.64	323.51	71.308	490.44	546.8	155.73	381.12	268.2	62.212	502.06	1281.3	-226.38	557.84	709.16	-360	566.91	645.93	148.81	510.19	746.31	-340.85	316.78	201.28	50.966	578.28	745.37	-310.51	262.35	74.396	15.868	615.7	786.97	193.07	273.71	31.119	27.424	438.59	957.84	-236.1	178.24	204.48	40.614	539.64	1275.2	-54.903	519.67	1151.6	176.63	492.27	641.69	171.04	496.19	729.41	188.34	676.22	821.51	166.53	233.15	78.996	67.478	485.03	864.97	-331.04	613.95	453.98	-157.19	485.19	1300.2	89.93	350.34	291.73	122.98	574.28	744.89	-214.83	599.16	657.11	-190.63	626.87	1476.6	-110.51	529.7	1008.5	218	496.19	447.29	151.04	627.48	1488.2	-33.909	463.85	986.2	-306.1	246.33	171.78	2.7649	604.76	1172.5	-51.83	618.27	568.22	-168.55	222.64	171.98	78.935	559.08	884.41	116.42	624.67	249.62	-138.31	656.44	684.73	-153.13	658.76	162.77	-64.197	572.77	29.811	-61.933	593.89	863.41	-182.4	704.6	29.708	-110.27	727.11	48.671	-56.411	657.32	344.9	-76.899	783.31	24.545	-66.195	649.61	253.46	-71.726	613.88	61.814	-105.04	635.89	68.906	-27.717
435	2.175	461.09	1486.9	-144.19	452.95	1499.2	-21.353	420.26	1354	-70.988	396.8	1081.2	-57.599	392.98	1258.7	67.164	389.5	889.04	-87.424	375.41	896.23	11.168	481.84	962.11	151.84	675.11	776.09	214.37	569.27	886.1	220.46	510.7	1104.8	-298.66	464.46	324.14	72.989	498.84	547.33	156.37	390.45	269.48	63.551	507.59	1282	-227.1	563.83	709.86	-360.52	574.31	647.27	149.2	516.18	747.03	-341.42	325.58	203.13	51.826	584.23	746.2	-311.1	270.26	76.251	17.67	617.65	787.04	193.75	280.39	32.208	30.245	444.16	958.61	-236.88	186.88	207.41	39.784	544.85	1275.9	-55.589	524.14	1152.5	176.09	499.64	642.33	171.18	502.59	730.18	188.03	678.52	821	167.26	240.2	81.703	68.665	490.85	865.67	-331.74	615.77	454.05	-157.57	490.19	1301.1	89.107	358.95	293.92	123.43	578.64	745.29	-215.33	602.73	657.29	-191.09	632.12	1477.2	-111.34	533.23	1009.3	217.68	505.46	447.92	151.81	632.68	1488.9	-34.738	469.51	986.92	-306.87	255.3	173.9	2.9736	609.97	1173.2	-52.406	621	568.22	-169	230.59	174.92	78.906	565.58	884.53	116.02	625.47	249.56	-138.58	660.26	684.39	-153.63	659.22	162.63	-64.415	572.74	29.836	-61.956	599.01	864.15	-183.01	704.6	29.69	-110.36	727.1	48.613	-56.413	658.59	344.73	-77.228	783.37	24.392	-66.065	650.46	253.33	-71.997	613.91	61.81	-105.13	635.94	68.916	-27.826
